<svg width="27" height="27" viewBox="0 0 27 27" fill="none" xmlns="http://www.w3.org/2000/svg">
<path d="M11.25 21.375H5.2875C4.23113 21.375 3.375 20.4795 3.375 19.3748V5.37525C3.375 4.2705 4.23113 3.375 5.2875 3.375H20.5875C21.6439 3.375 22.5 4.2705 22.5 5.37525V10.125" stroke="white" stroke-width="1.6875" stroke-linecap="round" stroke-linejoin="round"/>
<path d="M10.125 7.875H16.875" stroke="white" stroke-width="1.6875" stroke-linecap="round" stroke-linejoin="round"/>
<path d="M7.875 12.375H16.875" stroke="white" stroke-width="1.6875" stroke-linecap="round" stroke-linejoin="round"/>
<path d="M7.875 16.875H11.25" stroke="white" stroke-width="1.6875" stroke-linecap="round" stroke-linejoin="round"/>
<path fill-rule="evenodd" clip-rule="evenodd" d="M19.4546 23.2954L24.4204 18.3296C24.8603 17.8898 24.8603 17.1776 24.4204 16.7389L22.6361 14.9546C22.1962 14.5148 21.4841 14.5148 21.0454 14.9546L16.0796 19.9204C15.8681 20.1319 15.75 20.4176 15.75 20.7158V23.625H18.6592C18.9574 23.625 19.2431 23.5069 19.4546 23.2954V23.2954Z" stroke="white" stroke-width="1.6875" stroke-linecap="round" stroke-linejoin="round"/>
</svg>
