<svg width="24" height="24" viewBox="0 0 24 24" fill="none" xmlns="http://www.w3.org/2000/svg">
<path d="M13.8329 10.3778C14.9515 11.4964 14.9515 13.3123 13.8329 14.4328C12.7144 15.5513 10.8985 15.5513 9.77801 14.4328C8.65945 13.3142 8.65945 11.4983 9.77801 10.3778C10.8985 9.25736 12.7134 9.25736 13.8329 10.3778" stroke="#373A41" stroke-width="1.43284" stroke-linecap="round" stroke-linejoin="round"/>
<path fill-rule="evenodd" clip-rule="evenodd" d="M3.20892 12.4029C3.20892 11.7734 3.35412 11.1506 3.63495 10.5765V10.5765C5.08212 7.61822 8.28021 5.71637 11.8059 5.71637C15.3317 5.71637 18.5298 7.61822 19.9769 10.5765V10.5765C20.2578 11.1506 20.403 11.7734 20.403 12.4029C20.403 13.0324 20.2578 13.6552 19.9769 14.2293V14.2293C18.5298 17.1877 15.3317 19.0895 11.8059 19.0895C8.28021 19.0895 5.08212 17.1877 3.63495 14.2293V14.2293C3.35412 13.6552 3.20892 13.0324 3.20892 12.4029Z" stroke="#373A41" stroke-width="1.43284" stroke-linecap="round" stroke-linejoin="round"/>
</svg>
