<svg width="26" height="26" viewBox="0 0 26 26" fill="none" xmlns="http://www.w3.org/2000/svg">
<path d="M17.1102 19.5659V14.3" stroke="#292F2F" stroke-width="1.51701" stroke-linecap="round" stroke-linejoin="round"/>
<path d="M9.01983 19.5723V14.3" stroke="#292F2F" stroke-width="1.51701" stroke-linecap="round" stroke-linejoin="round"/>
<path d="M6.06983 8.99048L4.45393 9.96004C4.1493 10.1428 3.9629 10.472 3.96289 10.8273V20.6045C3.96288 20.9688 4.15886 21.305 4.47592 21.4846C4.79298 21.6641 5.18209 21.6592 5.49453 21.4717L8.43645 19.7066C8.78904 19.4951 9.23465 19.518 9.56359 19.7648L12.4581 21.9356C12.8177 22.2053 13.3122 22.2053 13.6718 21.9356L16.5663 19.7647C16.8953 19.518 17.3409 19.495 17.6935 19.7066L20.6354 21.4717C20.9478 21.6592 21.3369 21.6641 21.654 21.4846C21.971 21.305 22.167 20.9688 22.167 20.6045V10.8273C22.167 10.472 21.9806 10.1428 21.676 9.96003L20.0601 8.99048" stroke="#292F2F" stroke-width="1.51701" stroke-linecap="round" stroke-linejoin="round"/>
<path d="M13.065 16.3235V22.1371" stroke="#292F2F" stroke-width="1.51701" stroke-linecap="round" stroke-linejoin="round"/>
<path d="M9.02002 6.96736V6.96736C9.02002 4.73317 10.8312 2.922 13.0654 2.922V2.922C15.2996 2.922 17.1107 4.73317 17.1107 6.96736V6.96736" stroke="#292F2F" stroke-width="1.51701" stroke-linecap="round" stroke-linejoin="round"/>
<path d="M9.02002 6.96802C9.02002 8.79506 11.0359 10.7452 12.2215 11.7345C12.717 12.1213 13.412 12.1214 13.9076 11.735C15.0942 10.7458 17.1107 8.79536 17.1107 6.96802" stroke="#292F2F" stroke-width="1.51701" stroke-linecap="round" stroke-linejoin="round"/>
<path d="M13.066 6.60269C13.2055 6.60325 13.3182 6.7167 13.3178 6.8562C13.3175 6.99571 13.2042 7.10855 13.0647 7.10836C12.9252 7.10818 12.8122 6.99503 12.8122 6.85553C12.8118 6.78819 12.8385 6.72352 12.8862 6.676C12.9339 6.62847 12.9987 6.60207 13.066 6.60269" stroke="#292F2F" stroke-width="1.51701" stroke-linecap="round" stroke-linejoin="round"/>
</svg>
