<svg width="35" height="38" viewBox="0 0 35 38" fill="none" xmlns="http://www.w3.org/2000/svg">
<g clip-path="url(#clip0_1_2123)">
<path d="M27.2495 28.3458C28.5998 26.9956 29.6069 25.4793 30.271 23.797C30.9572 22.0926 31.3003 20.3605 31.3003 18.6007C31.3003 16.8409 30.9572 15.1088 30.271 13.4044C29.6069 11.7221 28.5998 10.2059 27.2495 8.85559C25.9214 7.52747 24.4051 6.52031 22.7007 5.83411C21.0184 5.17005 19.2918 4.83802 17.521 4.83802C15.7502 4.83802 14.0236 5.17005 12.3413 5.83411C10.6369 6.52031 9.1206 7.52747 7.79248 8.85559C7.17269 9.47539 6.60823 10.1505 6.09912 10.881C5.61214 11.6336 5.19157 12.4194 4.8374 13.2384C4.48324 14.0574 4.21761 14.9207 4.04053 15.8282C3.84131 16.7137 3.7417 17.6323 3.7417 18.5841C3.7417 20.0672 3.96305 21.4894 4.40576 22.8507C4.84847 24.212 5.47933 25.4461 6.29834 26.5529L6.26514 26.5197C6.33154 26.6303 6.38688 26.7521 6.43115 26.8849C6.47542 27.0177 6.49756 27.1616 6.49756 27.3165C6.49756 27.4272 6.48649 27.5323 6.46435 27.632C6.44222 27.7316 6.40902 27.8367 6.36475 27.9474V27.9142L4.57178 31.5333L8.19092 29.7404C8.27946 29.6961 8.37907 29.6629 8.48975 29.6407C8.60042 29.6186 8.7111 29.6075 8.82178 29.6075C8.95459 29.6075 9.0874 29.6297 9.22021 29.674C9.35303 29.7182 9.48584 29.7846 9.61865 29.8732H9.58545C10.6922 30.6479 11.9207 31.2566 13.271 31.6993C14.6213 32.142 16.0379 32.3634 17.521 32.3634C18.4728 32.3634 19.4025 32.2749 20.3101 32.0978C21.1955 31.9207 22.0532 31.6551 22.8833 31.3009C23.7134 30.9467 24.4937 30.5151 25.2241 30.006C25.9546 29.519 26.6297 28.9656 27.2495 28.3458ZM29.2085 6.92981C30.8244 8.52356 32.0308 10.3387 32.8276 12.3751C33.6466 14.4116 34.0561 16.4868 34.0561 18.6007C34.0561 20.7146 33.6466 22.7898 32.8276 24.8263C32.0308 26.8628 30.8244 28.6779 29.2085 30.2716C28.4559 31.0242 27.6369 31.6993 26.7515 32.297C25.8882 32.8947 24.9585 33.4038 23.9624 33.8243C22.9663 34.2449 21.9259 34.5659 20.8413 34.7872C19.7788 35.0307 18.672 35.1525 17.521 35.1525C15.883 35.1525 14.3114 34.92 12.8062 34.4552C11.3009 33.9904 9.90641 33.3484 8.62256 32.5294L8.68896 32.5626L3.87451 34.9532C3.76383 34.9975 3.63656 35.0363 3.49268 35.0695C3.3488 35.1027 3.21045 35.1193 3.07764 35.1193C2.78988 35.1193 2.51872 35.0639 2.26416 34.9532C2.0096 34.8426 1.79378 34.6987 1.6167 34.5216C1.41748 34.3224 1.26253 34.101 1.15186 33.8575C1.04118 33.6141 0.98584 33.3484 0.98584 33.0607C0.98584 32.9057 1.00798 32.7508 1.05225 32.5958C1.09652 32.4409 1.15186 32.297 1.21826 32.1642H1.18506L3.54248 27.4161C2.74561 26.1766 2.12028 24.8042 1.6665 23.299C1.21273 21.7937 0.98584 20.2221 0.98584 18.5841C0.98584 17.4552 1.09652 16.3484 1.31787 15.2638C1.53923 14.1792 1.86019 13.1443 2.28076 12.1593C2.70133 11.1743 3.21045 10.2391 3.80811 9.35364C4.40576 8.46822 5.08089 7.64921 5.8335 6.89661C7.44938 5.30286 9.27555 4.09648 11.312 3.27747C13.3263 2.48059 15.396 2.08216 17.521 2.08216C19.646 2.08216 21.7157 2.48059 23.73 3.27747C25.7664 4.09648 27.5926 5.30286 29.2085 6.89661V6.92981ZM23.0659 23.1661L21.4058 21.506C21.3615 21.4617 21.2951 21.4174 21.2065 21.3732C21.118 21.3289 21.0295 21.3068 20.9409 21.3068C20.8302 21.3068 20.7362 21.3289 20.6587 21.3732C20.5812 21.4174 20.5093 21.4617 20.4429 21.506L19.0483 22.9337L21.0073 24.295L23.0659 23.1661ZM14.5991 14.6993L12.9722 13.0724L11.8433 15.0978L13.2046 17.09L14.5991 15.6622C14.6655 15.618 14.7153 15.5516 14.7485 15.463C14.7817 15.3745 14.7983 15.2859 14.7983 15.1974C14.7983 15.1088 14.7817 15.0203 14.7485 14.9318C14.7153 14.8432 14.6655 14.7657 14.5991 14.6993ZM25.6558 21.838C25.8771 22.0815 26.0376 22.3527 26.1372 22.6515C26.2368 22.9503 26.2645 23.2657 26.2202 23.5978C26.1759 23.9298 26.0597 24.2286 25.8716 24.4943C25.6834 24.7599 25.4565 24.9702 25.1909 25.1251L22.3354 26.6857C22.1584 26.7963 21.9536 26.8849 21.7212 26.9513C21.4888 27.0177 21.2508 27.0509 21.0073 27.0509C20.7196 27.0509 20.4429 27.0066 20.1772 26.9181C19.9116 26.8295 19.6681 26.7078 19.4468 26.5529L17.4214 25.1583C17.2 25.0034 16.9787 24.8429 16.7573 24.6769C16.536 24.5109 16.3146 24.3393 16.0933 24.1622L16.0601 24.129C15.3075 23.5314 14.5936 22.895 13.9185 22.2199C13.2433 21.5447 12.6069 20.8309 12.0093 20.0782L11.9761 20.045C11.799 19.8237 11.6274 19.6023 11.4614 19.381C11.2954 19.1596 11.1349 18.9272 10.98 18.6837L9.58545 16.6915C9.4305 16.4702 9.30876 16.2267 9.22021 15.9611C9.13167 15.6954 9.0874 15.4077 9.0874 15.0978C9.0874 14.8543 9.11507 14.6219 9.17041 14.4005C9.22575 14.1792 9.31982 13.9689 9.45264 13.7697H9.41943L11.0132 10.9474C11.1681 10.6596 11.3784 10.4217 11.644 10.2335C11.9097 10.0454 12.2085 9.92916 12.5405 9.88489C12.8504 9.84062 13.1603 9.87382 13.4702 9.9845C13.7801 10.0952 14.0457 10.2612 14.2671 10.4825L16.5581 12.7736C17.2222 13.4376 17.5542 14.2456 17.5542 15.1974C17.5542 16.1492 17.2222 16.9572 16.5581 17.6212L14.8979 19.2482C15.2078 19.6023 15.5288 19.9399 15.8608 20.2609C16.1929 20.5818 16.5249 20.8973 16.8569 21.2072L18.4839 19.5802C19.1701 18.894 19.9891 18.5509 20.9409 18.5509C21.8927 18.5509 22.7007 18.894 23.3647 19.5802L25.6558 21.838Z" fill="white"/>
</g>
<defs>
<clipPath id="clip0_1_2123">
<rect width="34" height="34" fill="white" transform="matrix(1 0 0 -1 0.98584 36.0819)"/>
</clipPath>
</defs>
</svg>
