<svg width="35" height="35" viewBox="0 0 35 35" fill="none" xmlns="http://www.w3.org/2000/svg">
<path fill-rule="evenodd" clip-rule="evenodd" d="M30.8959 9.10786C30.5715 7.68553 29.611 6.56353 28.3898 6.1782C26.1812 5.48828 17.32 5.48828 17.32 5.48828C17.32 5.48828 8.46299 5.48828 6.25015 6.1782C5.03324 6.55786 4.07274 7.67986 3.74407 9.10786C3.15332 11.689 3.15332 17.0794 3.15332 17.0794C3.15332 17.0794 3.15332 22.4699 3.74407 25.051C4.06849 26.4734 5.02899 27.5954 6.25015 27.9807C8.46299 28.6706 17.32 28.6706 17.32 28.6706C17.32 28.6706 26.1812 28.6706 28.3898 27.9807C29.6067 27.601 30.5672 26.479 30.8959 25.051C31.4867 22.4699 31.4867 17.0794 31.4867 17.0794C31.4867 17.0794 31.4867 11.689 30.8959 9.10786Z" stroke="#EAEDED" stroke-width="2.125" stroke-linecap="round" stroke-linejoin="round"/>
<path fill-rule="evenodd" clip-rule="evenodd" d="M14.4893 21.332L21.8503 17.082L14.4893 12.832V21.332Z" stroke="#EAEDED" stroke-width="2.125" stroke-linecap="round" stroke-linejoin="round"/>
</svg>
