<svg width="35" height="38" viewBox="0 0 35 38" fill="none" xmlns="http://www.w3.org/2000/svg">
<g clip-path="url(#clip0_1_2113)">
<path d="M17.3538 25.0604L16.2913 21.4413L17.1877 20.5448C17.2984 20.4341 17.387 20.2958 17.4534 20.1298C17.5198 19.9637 17.553 19.7922 17.553 19.6151C17.553 19.2388 17.4202 18.9123 17.1545 18.6356C16.8889 18.3589 16.5569 18.2206 16.1584 18.2206C15.9814 18.2206 15.8153 18.2538 15.6604 18.3202C15.5055 18.3866 15.3616 18.4862 15.2288 18.619L14.3323 19.4823L10.7131 18.4198L21.5706 14.203L17.3538 25.0604ZM9.71704 15.8632C9.20793 16.0624 8.79289 16.3889 8.47192 16.8427C8.15096 17.2964 7.99048 17.8111 7.99048 18.3866C7.99048 18.4309 7.99048 18.4641 7.99048 18.4862C7.99048 18.5083 7.99048 18.5305 7.99048 18.5526C8.01261 19.1503 8.2063 19.676 8.57153 20.1298C8.93677 20.5835 9.39608 20.899 9.94946 21.0761L13.635 22.1386L14.7307 25.8241C14.8857 26.3775 15.19 26.8423 15.6438 27.2186C16.0976 27.5949 16.6233 27.7941 17.2209 27.8163H17.2541C17.2763 27.8163 17.2929 27.8163 17.304 27.8163C17.315 27.8163 17.3316 27.8163 17.3538 27.8163C17.9293 27.8163 18.4495 27.6558 18.9143 27.3348C19.3791 27.0139 19.7112 26.5878 19.9104 26.0565L24.1272 15.1991C24.1936 15.0442 24.2434 14.8837 24.2766 14.7177C24.3098 14.5516 24.3264 14.3801 24.3264 14.203C24.3264 13.8267 24.2545 13.4725 24.1106 13.1405C23.9667 12.8085 23.773 12.5207 23.5295 12.2772V12.244C23.286 12.0005 22.9983 11.8068 22.6663 11.663C22.3342 11.5191 21.969 11.4471 21.5706 11.4471C21.3935 11.4471 21.2219 11.4637 21.0559 11.497C20.8899 11.5302 20.7294 11.58 20.5745 11.6464L9.71704 15.8632ZM7.42602 28.3475C6.80623 27.7277 6.25285 27.0526 5.76587 26.3221C5.25675 25.5917 4.83065 24.8169 4.48755 23.9979C4.14445 23.1789 3.87329 22.3156 3.67407 21.4081C3.49699 20.5227 3.40845 19.604 3.40845 18.6522C3.40845 18.6301 3.40845 18.619 3.40845 18.619C3.40845 18.5969 3.40845 18.5858 3.40845 18.5858C3.40845 17.634 3.49699 16.7043 3.67407 15.7968C3.87329 14.9113 4.14445 14.0591 4.48755 13.2401C4.83065 12.4211 5.25675 11.6353 5.76587 10.8827C6.25285 10.1522 6.80623 9.47709 7.42602 8.8573C8.04582 8.23751 8.72095 7.68413 9.45142 7.19715C10.204 6.68803 10.9898 6.26192 11.8088 5.91883C12.6278 5.57573 13.4801 5.30457 14.3655 5.10535C15.273 4.92827 16.2027 4.83973 17.1545 4.83973C17.1545 4.83973 17.1656 4.83973 17.1877 4.83973C17.1877 4.83973 17.1988 4.83973 17.2209 4.83973C18.1728 4.83973 19.0914 4.92827 19.9768 5.10535C20.8844 5.30457 21.7476 5.57573 22.5666 5.91883C23.3857 6.26192 24.1604 6.68803 24.8909 7.19715C25.6213 7.68413 26.2965 8.23751 26.9163 8.8573C27.536 9.47709 28.1005 10.1522 28.6096 10.8827C29.0966 11.6353 29.5172 12.4211 29.8713 13.2401C30.2255 14.0591 30.4911 14.9113 30.6682 15.7968C30.8453 16.7043 30.9338 17.6229 30.9338 18.5526C30.9338 18.5747 30.9338 18.5858 30.9338 18.5858C30.9338 18.5858 30.9338 18.5969 30.9338 18.619C30.9338 18.619 30.9338 18.6301 30.9338 18.6522C30.9338 19.604 30.8453 20.5227 30.6682 21.4081C30.4911 22.3156 30.2255 23.1789 29.8713 23.9979C29.5172 24.8169 29.0966 25.5917 28.6096 26.3221C28.1005 27.0526 27.536 27.7277 26.9163 28.3475C25.566 29.6978 24.0497 30.705 22.3674 31.369C20.663 32.0331 18.9309 32.3651 17.1711 32.3651C15.4114 32.3651 13.6903 32.0331 12.0081 31.369C10.3036 30.705 8.77629 29.6978 7.42602 28.3475ZM28.8752 6.93152C28.1226 6.17892 27.3036 5.50379 26.4182 4.90613C25.5549 4.30848 24.6308 3.79936 23.6458 3.37879C22.6607 2.95821 21.6259 2.63725 20.5413 2.4159C19.4566 2.19454 18.3499 2.08387 17.2209 2.08387C17.2209 2.08387 17.2154 2.08387 17.2043 2.08387C17.1933 2.08387 17.1877 2.08387 17.1877 2.08387C17.1656 2.08387 17.1545 2.08387 17.1545 2.08387C17.1545 2.08387 17.1435 2.08387 17.1213 2.08387C15.9924 2.08387 14.8857 2.19454 13.801 2.4159C12.7385 2.63725 11.7148 2.95821 10.7297 3.37879C9.74471 3.79936 8.80949 4.30848 7.92407 4.90613C7.03865 5.50379 6.23071 6.17892 5.50024 6.93152C4.74764 7.66199 4.07251 8.46993 3.47485 9.35535C2.8772 10.2408 2.36808 11.176 1.94751 12.161C1.52694 13.146 1.20597 14.1698 0.984619 15.2323C0.763265 16.3169 0.652588 17.4237 0.652588 18.5526C0.652588 18.5747 0.652588 18.5858 0.652588 18.5858C0.652588 18.5858 0.652588 18.5969 0.652588 18.619C0.652588 18.619 0.652588 18.6246 0.652588 18.6356C0.652588 18.6467 0.652588 18.6522 0.652588 18.6522C0.652588 19.7811 0.763265 20.8879 0.984619 21.9725C1.20597 23.0572 1.52694 24.092 1.94751 25.077C2.36808 26.0621 2.8772 26.9862 3.47485 27.8495C4.07251 28.7349 4.74764 29.5539 5.50024 30.3065C6.23071 31.037 7.03865 31.7011 7.92407 32.2987C8.80949 32.8964 9.74471 33.4055 10.7297 33.826C11.7148 34.2466 12.7496 34.5676 13.8342 34.7889C14.8967 35.0103 16.0035 35.121 17.1545 35.121C17.1545 35.121 17.1656 35.121 17.1877 35.121C17.1877 35.121 17.1988 35.121 17.2209 35.121C18.3499 35.121 19.4566 35.0103 20.5413 34.7889C21.6038 34.5676 22.6275 34.2466 23.6125 33.826C24.5976 33.4055 25.5328 32.8964 26.4182 32.2987C27.3036 31.7011 28.1226 31.037 28.8752 30.3065C29.6057 29.5539 30.2698 28.7349 30.8674 27.8495C31.4651 26.9862 31.9742 26.0621 32.3948 25.077C32.8153 24.092 33.1363 23.0572 33.3577 21.9725C33.579 20.8879 33.6897 19.7811 33.6897 18.6522C33.6897 18.6522 33.6897 18.6467 33.6897 18.6356C33.6897 18.6246 33.6897 18.619 33.6897 18.619C33.6897 18.5969 33.6897 18.5858 33.6897 18.5858C33.6897 18.5858 33.6897 18.5747 33.6897 18.5526C33.6897 17.4237 33.579 16.3169 33.3577 15.2323C33.1363 14.1698 32.8153 13.146 32.3948 12.161C31.9742 11.176 31.4651 10.2408 30.8674 9.35535C30.2698 8.46993 29.6057 7.66199 28.8752 6.93152Z" fill="white"/>
</g>
<defs>
<clipPath id="clip0_1_2113">
<rect width="34" height="34" fill="white" transform="matrix(1 0 0 -1 0.652588 36.0819)"/>
</clipPath>
</defs>
</svg>
