<svg width="35" height="35" viewBox="0 0 35 35" fill="none" xmlns="http://www.w3.org/2000/svg">
<g clip-path="url(#clip0_1_2129)">
<path d="M26.1197 5.58754C25.5663 5.58754 25.0849 5.78676 24.6754 6.1852C24.2658 6.58364 24.0611 7.07063 24.0611 7.64616C24.0611 8.22168 24.2658 8.70867 24.6754 9.10711C25.0849 9.50555 25.5663 9.70478 26.1197 9.70478C26.6731 9.68264 27.138 9.47235 27.5143 9.07391C27.8906 8.67547 28.0787 8.19955 28.0787 7.64616C28.0787 7.09276 27.8906 6.61685 27.5143 6.2184C27.138 5.81996 26.6731 5.60967 26.1197 5.58754ZM17.188 21.4256C15.8598 21.4256 14.7254 20.9552 13.7846 20.0145C12.8438 19.0737 12.3734 17.9393 12.3734 16.6111C12.3734 15.283 12.8438 14.1485 13.7846 13.2078C14.7254 12.267 15.8598 11.7966 17.188 11.7966C18.5161 11.7966 19.6506 12.267 20.5913 13.2078C21.5321 14.1485 22.0025 15.283 22.0025 16.6111C22.0025 17.9393 21.5321 19.0737 20.5913 20.0145C19.6506 20.9552 18.5161 21.4256 17.188 21.4256ZM17.188 9.0407C16.1476 9.0407 15.1625 9.23993 14.2328 9.63837C13.3031 10.0368 12.5007 10.5736 11.8256 11.2487C11.1504 11.9239 10.6137 12.7263 10.2152 13.656C9.81677 14.5636 9.61755 15.5486 9.61755 16.6111C9.61755 17.6515 9.81677 18.6255 10.2152 19.533C10.6137 20.4627 11.1504 21.2707 11.8256 21.9569C12.5007 22.6431 13.3031 23.1854 14.2328 23.5839C15.1404 23.9823 16.1254 24.1815 17.188 24.1815C18.2283 24.1815 19.2023 23.9823 20.1099 23.5839C21.0396 23.1854 21.8475 22.6431 22.5337 21.9569C23.2199 21.2707 23.7623 20.4627 24.1607 19.533C24.5591 18.6255 24.7584 17.6515 24.7584 16.6111C24.7584 15.5486 24.5591 14.5636 24.1607 13.656C23.7623 12.7263 23.2199 11.9239 22.5337 11.2487C21.8475 10.5736 21.0396 10.0368 20.1099 9.63837C19.2023 9.23993 18.2283 9.0407 17.188 9.0407ZM30.9342 23.4843C30.9342 24.4361 30.7571 25.3326 30.403 26.1737C30.0488 26.9928 29.5618 27.7177 28.942 28.3486C28.3222 28.9794 27.5917 29.472 26.7506 29.8261C25.9094 30.1803 25.0129 30.3574 24.0611 30.3574H10.2816C9.32978 30.3574 8.44436 30.1803 7.62533 29.8261C6.78418 29.472 6.0537 28.9794 5.4339 28.3486C4.8141 27.7177 4.31605 26.9928 3.93974 26.1737C3.58557 25.3326 3.40848 24.4361 3.40848 23.4843V9.70478C3.40848 8.75294 3.58557 7.86751 3.93974 7.04849C4.31605 6.20733 4.8141 5.47686 5.4339 4.85706C6.0537 4.23726 6.78418 3.7392 7.62533 3.3629C8.44436 3.00873 9.32978 2.83164 10.2816 2.83164H24.0611C25.0129 2.83164 25.9094 3.00873 26.7506 3.3629C27.5917 3.7392 28.3222 4.23726 28.942 4.85706C29.5618 5.47686 30.0488 6.20733 30.403 7.04849C30.7571 7.86751 30.9342 8.75294 30.9342 9.70478V23.4843ZM33.6901 9.70478C33.6901 8.37663 33.4356 7.12597 32.9264 5.95277C32.4395 4.80172 31.7588 3.78901 30.8844 2.91465C30.0101 2.04029 28.9863 1.34855 27.8131 0.839428C26.6399 0.330307 25.3892 0.0757446 24.0611 0.0757446H10.2816C8.95348 0.0757446 7.70281 0.330307 6.52962 0.839428C5.37856 1.34855 4.36585 2.04029 3.49149 2.91465C2.61713 3.78901 1.92539 4.80172 1.41627 5.95277C0.907148 7.12597 0.652588 8.37663 0.652588 9.70478V23.4843C0.652588 24.8124 0.907148 26.0631 1.41627 27.2363C1.92539 28.4094 2.61713 29.4332 3.49149 30.3076C4.36585 31.1819 5.37856 31.8626 6.52962 32.3496C7.70281 32.8587 8.95348 33.1133 10.2816 33.1133H24.0611C25.3892 33.1133 26.6399 32.8587 27.8131 32.3496C28.9863 31.8626 30.0101 31.1819 30.8844 30.3076C31.7588 29.4332 32.4505 28.4094 32.9596 27.2363C33.4466 26.0631 33.6901 24.8124 33.6901 23.4843V9.70478Z" fill="white"/>
</g>
<defs>
<clipPath id="clip0_1_2129">
<rect width="34.0004" height="34.0004" fill="white" transform="matrix(1 0 0 -1 0.652588 34.082)"/>
</clipPath>
</defs>
</svg>
